<svg width="500" height="500" viewBox="0 0 500 500" fill="none" xmlns="http://www.w3.org/2000/svg">
<g filter="url(#filter0_d_315_173)">
<g filter="url(#filter1_d_315_173)">
<path d="M54 88H437.5L408.5 117H83L54 88Z" fill="#60BDE4"/>
<path d="M88.5 122H245.5V151H117.593L88.5 122Z" fill="#60BDE4"/>
<path d="M207.5 150.299H245.5V167.299H207.5V150.299Z" fill="#60BDE4"/>
<path d="M207.501 167.286L245.501 167.286L229 194.5L207.501 230.286L207.501 167.286Z" fill="#60BDE4"/>
<path d="M207.5 236.5L245.5 174V368.5L207.5 331.218V236.5Z" fill="#60BDE4"/>
<path d="M291.974 284.604L291.673 230.303L418.199 356.699L418.5 411L291.974 284.604Z" fill="black"/>
<path d="M250.5 122L404.5 121L374.71 151H250.5V122Z" fill="#60BDE4"/>
<path d="M250.5 151H288.5V279.5L250.5 241.5V151Z" fill="#60BDE4"/>
<path d="M250.5 246L288.5 284V407L250.5 368.052V246Z" fill="black"/>
<path d="M286.5 322.5H325.5L357.5 355.5H286.5V322.5Z" fill="black"/>
</g>
<path d="M250.5 190L288.5 228V279.5L250.5 241.5V190Z" fill="black"/>
</g>
<defs>
<filter id="filter0_d_315_173" x="50" y="88" width="391.5" height="331" filterUnits="userSpaceOnUse" color-interpolation-filters="sRGB">
<feFlood flood-opacity="0" result="BackgroundImageFix"/>
<feColorMatrix in="SourceAlpha" type="matrix" values="0 0 0 0 0 0 0 0 0 0 0 0 0 0 0 0 0 0 127 0" result="hardAlpha"/>
<feOffset dy="4"/>
<feGaussianBlur stdDeviation="2"/>
<feComposite in2="hardAlpha" operator="out"/>
<feColorMatrix type="matrix" values="0 0 0 0 0 0 0 0 0 0 0 0 0 0 0 0 0 0 0.25 0"/>
<feBlend mode="normal" in2="BackgroundImageFix" result="effect1_dropShadow_315_173"/>
<feBlend mode="normal" in="SourceGraphic" in2="effect1_dropShadow_315_173" result="shape"/>
</filter>
<filter id="filter1_d_315_173" x="42" y="76" width="431.5" height="371" filterUnits="userSpaceOnUse" color-interpolation-filters="sRGB">
<feFlood flood-opacity="0" result="BackgroundImageFix"/>
<feColorMatrix in="SourceAlpha" type="matrix" values="0 0 0 0 0 0 0 0 0 0 0 0 0 0 0 0 0 0 127 0" result="hardAlpha"/>
<feOffset dx="12" dy="12"/>
<feGaussianBlur stdDeviation="12"/>
<feComposite in2="hardAlpha" operator="out"/>
<feColorMatrix type="matrix" values="0 0 0 0 0.0791667 0 0 0 0 0.0791667 0 0 0 0 0.0791667 0 0 0 0.1 0"/>
<feBlend mode="normal" in2="BackgroundImageFix" result="effect1_dropShadow_315_173"/>
<feBlend mode="normal" in="SourceGraphic" in2="effect1_dropShadow_315_173" result="shape"/>
</filter>
</defs>
</svg>
